<svg width="1400" height="550" viewBox="0 0 1400 550" fill="none" xmlns="http://www.w3.org/2000/svg">
<g clip-path="url(#clip0_229_12787)">
<path d="M60.5328 262.502C59.2146 266.113 57.3805 268.692 55.0306 270.24C52.6807 271.787 49.4137 272.561 45.2297 272.561C43.9688 272.561 42.7079 272.504 41.447 272.389C40.2433 272.332 39.0111 272.246 37.7502 272.131V262.072C38.8965 262.187 40.0714 262.302 41.275 262.416C42.4786 262.531 43.6822 262.56 44.8859 262.502C46.4907 262.33 47.6656 261.7 48.4107 260.611C49.2131 259.522 49.6143 258.318 49.6143 257C49.6143 256.026 49.4424 255.109 49.0985 254.249L33.5375 212.552H46.5193L56.5781 242.987H56.75L66.4649 212.552H79.1028L60.5328 262.502ZM91.4445 234.819C91.4445 236.596 91.6165 238.344 91.9603 240.063C92.3042 241.726 92.8774 243.244 93.6798 244.62C94.5395 245.938 95.6572 246.999 97.0327 247.801C98.4083 248.603 100.128 249.005 102.191 249.005C104.254 249.005 105.974 248.603 107.349 247.801C108.782 246.999 109.9 245.938 110.702 244.62C111.562 243.244 112.164 241.726 112.508 240.063C112.852 238.344 113.024 236.596 113.024 234.819C113.024 233.042 112.852 231.294 112.508 229.575C112.164 227.855 111.562 226.337 110.702 225.018C109.9 223.7 108.782 222.64 107.349 221.837C105.974 220.978 104.254 220.548 102.191 220.548C100.128 220.548 98.4083 220.978 97.0327 221.837C95.6572 222.64 94.5395 223.7 93.6798 225.018C92.8774 226.337 92.3042 227.855 91.9603 229.575C91.6165 231.294 91.4445 233.042 91.4445 234.819ZM79.2365 234.819C79.2365 231.266 79.7809 228.056 80.8699 225.19C81.9589 222.267 83.5064 219.803 85.5124 217.797C87.5185 215.733 89.9257 214.157 92.7341 213.068C95.5425 211.922 98.6948 211.349 102.191 211.349C105.687 211.349 108.84 211.922 111.648 213.068C114.514 214.157 116.95 215.733 118.956 217.797C120.962 219.803 122.509 222.267 123.598 225.19C124.687 228.056 125.232 231.266 125.232 234.819C125.232 238.373 124.687 241.582 123.598 244.448C122.509 247.314 120.962 249.778 118.956 251.842C116.95 253.848 114.514 255.395 111.648 256.484C108.84 257.573 105.687 258.118 102.191 258.118C98.6948 258.118 95.5425 257.573 92.7341 256.484C89.9257 255.395 87.5185 253.848 85.5124 251.842C83.5064 249.778 81.9589 247.314 80.8699 244.448C79.7809 241.582 79.2365 238.373 79.2365 234.819ZM172.287 257H160.68V250.81H160.422C158.875 253.389 156.869 255.252 154.404 256.398C151.94 257.544 149.418 258.118 146.839 258.118C143.572 258.118 140.878 257.688 138.757 256.828C136.694 255.968 135.061 254.765 133.857 253.217C132.653 251.612 131.794 249.692 131.278 247.457C130.819 245.164 130.59 242.643 130.59 239.892V212.552H142.798V237.656C142.798 241.324 143.371 244.076 144.518 245.91C145.664 247.686 147.699 248.575 150.622 248.575C153.946 248.575 156.353 247.6 157.843 245.652C159.333 243.646 160.079 240.379 160.079 235.851V212.552H172.287V257ZM178.973 212.552H190.579V220.806H190.751C191.324 219.43 192.098 218.169 193.072 217.023C194.047 215.819 195.164 214.816 196.425 214.014C197.686 213.154 199.033 212.495 200.466 212.037C201.899 211.578 203.389 211.349 204.937 211.349C205.739 211.349 206.627 211.492 207.602 211.779V223.127C207.029 223.012 206.341 222.926 205.538 222.869C204.736 222.754 203.962 222.697 203.217 222.697C200.982 222.697 199.09 223.07 197.543 223.815C195.995 224.56 194.735 225.591 193.76 226.91C192.843 228.171 192.184 229.661 191.783 231.38C191.382 233.1 191.181 234.962 191.181 236.968V257H178.973V212.552ZM240.614 242.557C240.614 243.875 240.872 245.021 241.388 245.996C241.961 246.913 242.678 247.686 243.537 248.317C244.397 248.89 245.372 249.32 246.461 249.606C247.607 249.893 248.782 250.036 249.985 250.036C250.845 250.036 251.733 249.95 252.651 249.778C253.625 249.549 254.485 249.234 255.23 248.833C256.032 248.374 256.691 247.801 257.207 247.113C257.723 246.368 257.981 245.451 257.981 244.362C257.981 242.528 256.749 241.152 254.284 240.235C251.877 239.318 248.495 238.401 244.139 237.484C242.363 237.083 240.614 236.625 238.895 236.109C237.233 235.536 235.743 234.819 234.424 233.959C233.106 233.042 232.046 231.925 231.243 230.607C230.441 229.231 230.04 227.569 230.04 225.62C230.04 222.754 230.584 220.404 231.673 218.57C232.82 216.736 234.31 215.303 236.144 214.272C237.978 213.183 240.041 212.438 242.334 212.037C244.626 211.578 246.976 211.349 249.384 211.349C251.791 211.349 254.112 211.578 256.347 212.037C258.64 212.495 260.675 213.269 262.451 214.358C264.228 215.447 265.69 216.908 266.836 218.742C268.04 220.519 268.756 222.783 268.985 225.534H257.379C257.207 223.184 256.319 221.608 254.714 220.806C253.109 219.946 251.218 219.516 249.04 219.516C248.352 219.516 247.607 219.573 246.804 219.688C246.002 219.745 245.257 219.917 244.569 220.204C243.939 220.49 243.394 220.92 242.936 221.493C242.477 222.009 242.248 222.726 242.248 223.643C242.248 224.732 242.649 225.62 243.451 226.308C244.254 226.996 245.286 227.569 246.546 228.027C247.865 228.429 249.355 228.801 251.017 229.145C252.679 229.489 254.37 229.861 256.089 230.263C257.866 230.664 259.586 231.151 261.248 231.724C262.967 232.297 264.486 233.071 265.804 234.045C267.123 234.962 268.183 236.137 268.985 237.57C269.788 238.946 270.189 240.665 270.189 242.729C270.189 245.652 269.587 248.116 268.383 250.122C267.237 252.071 265.718 253.647 263.827 254.851C261.936 256.054 259.758 256.885 257.293 257.344C254.886 257.86 252.421 258.118 249.899 258.118C247.32 258.118 244.798 257.86 242.334 257.344C239.869 256.828 237.663 255.968 235.714 254.765C233.823 253.561 232.246 251.985 230.986 250.036C229.782 248.03 229.123 245.537 229.008 242.557H240.614ZM297.194 249.005C299.2 249.005 300.862 248.603 302.18 247.801C303.555 246.999 304.644 245.967 305.447 244.706C306.307 243.388 306.908 241.869 307.252 240.149C307.596 238.43 307.768 236.682 307.768 234.905C307.768 233.128 307.568 231.38 307.166 229.661C306.822 227.941 306.221 226.423 305.361 225.104C304.501 223.729 303.384 222.64 302.008 221.837C300.69 220.978 299.056 220.548 297.108 220.548C295.102 220.548 293.411 220.978 292.035 221.837C290.717 222.64 289.628 223.7 288.768 225.018C287.966 226.337 287.393 227.855 287.049 229.575C286.705 231.294 286.533 233.071 286.533 234.905C286.533 236.682 286.705 238.43 287.049 240.149C287.45 241.869 288.052 243.388 288.854 244.706C289.714 245.967 290.832 246.999 292.207 247.801C293.583 248.603 295.245 249.005 297.194 249.005ZM274.755 212.552H286.361V218.227H286.533C288.023 215.819 289.915 214.071 292.207 212.982C294.5 211.893 297.022 211.349 299.773 211.349C303.269 211.349 306.278 212.008 308.8 213.326C311.322 214.644 313.414 216.392 315.076 218.57C316.738 220.748 317.97 223.299 318.773 226.222C319.575 229.088 319.976 232.097 319.976 235.249C319.976 238.229 319.575 241.095 318.773 243.846C317.97 246.597 316.738 249.033 315.076 251.154C313.471 253.275 311.436 254.965 308.972 256.226C306.565 257.487 303.727 258.118 300.46 258.118C297.709 258.118 295.159 257.573 292.809 256.484C290.516 255.338 288.625 253.676 287.135 251.498H286.963V272.561H274.755V212.552ZM324.217 226.222C324.389 223.356 325.105 220.978 326.366 219.086C327.627 217.195 329.232 215.676 331.181 214.53C333.129 213.383 335.307 212.581 337.715 212.122C340.179 211.607 342.644 211.349 345.108 211.349C347.344 211.349 349.607 211.521 351.9 211.865C354.193 212.151 356.285 212.753 358.176 213.67C360.067 214.587 361.615 215.877 362.819 217.539C364.022 219.144 364.624 221.293 364.624 223.987V247.113C364.624 249.119 364.739 251.039 364.968 252.873C365.197 254.707 365.598 256.083 366.171 257H353.791C353.562 256.312 353.362 255.624 353.19 254.937C353.075 254.192 352.989 253.446 352.932 252.701C350.983 254.707 348.69 256.112 346.054 256.914C343.417 257.716 340.724 258.118 337.973 258.118C335.852 258.118 333.875 257.86 332.041 257.344C330.206 256.828 328.602 256.026 327.226 254.937C325.851 253.848 324.762 252.472 323.959 250.81C323.214 249.148 322.841 247.171 322.841 244.878C322.841 242.356 323.271 240.293 324.131 238.688C325.048 237.026 326.194 235.708 327.57 234.733C329.003 233.759 330.608 233.042 332.384 232.584C334.218 232.068 336.053 231.667 337.887 231.38C339.721 231.094 341.526 230.864 343.303 230.692C345.08 230.521 346.656 230.263 348.031 229.919C349.407 229.575 350.496 229.088 351.298 228.457C352.101 227.769 352.473 226.795 352.416 225.534C352.416 224.216 352.187 223.184 351.728 222.439C351.327 221.637 350.754 221.035 350.009 220.634C349.321 220.175 348.49 219.889 347.516 219.774C346.598 219.602 345.595 219.516 344.506 219.516C342.099 219.516 340.208 220.032 338.832 221.064C337.457 222.095 336.654 223.815 336.425 226.222H324.217ZM352.416 235.249C351.9 235.708 351.241 236.08 350.439 236.367C349.693 236.596 348.862 236.797 347.945 236.968C347.086 237.14 346.169 237.284 345.194 237.398C344.22 237.513 343.246 237.656 342.271 237.828C341.354 238 340.437 238.229 339.52 238.516C338.66 238.803 337.887 239.204 337.199 239.72C336.568 240.178 336.053 240.78 335.651 241.525C335.25 242.27 335.05 243.216 335.05 244.362C335.05 245.451 335.25 246.368 335.651 247.113C336.053 247.858 336.597 248.46 337.285 248.919C337.973 249.32 338.775 249.606 339.692 249.778C340.609 249.95 341.555 250.036 342.529 250.036C344.936 250.036 346.799 249.635 348.117 248.833C349.436 248.03 350.41 247.085 351.04 245.996C351.671 244.849 352.043 243.703 352.158 242.557C352.33 241.41 352.416 240.493 352.416 239.806V235.249ZM401.783 228.199C400.98 223.098 397.971 220.548 392.756 220.548C390.807 220.548 389.174 221.006 387.855 221.923C386.537 222.783 385.448 223.929 384.588 225.362C383.786 226.738 383.213 228.285 382.869 230.005C382.525 231.667 382.353 233.329 382.353 234.991C382.353 236.596 382.525 238.229 382.869 239.892C383.213 241.554 383.757 243.072 384.502 244.448C385.305 245.766 386.365 246.855 387.683 247.715C389.002 248.575 390.606 249.005 392.498 249.005C395.421 249.005 397.656 248.202 399.204 246.597C400.808 244.935 401.811 242.729 402.213 239.977H413.991C413.188 245.881 410.896 250.38 407.113 253.475C403.33 256.57 398.487 258.118 392.584 258.118C389.259 258.118 386.193 257.573 383.385 256.484C380.634 255.338 378.284 253.762 376.335 251.756C374.386 249.75 372.867 247.371 371.778 244.62C370.689 241.812 370.145 238.745 370.145 235.421C370.145 231.982 370.632 228.801 371.607 225.878C372.638 222.898 374.128 220.347 376.077 218.227C378.026 216.049 380.404 214.358 383.213 213.154C386.021 211.951 389.231 211.349 392.842 211.349C395.478 211.349 398 211.693 400.407 212.38C402.872 213.068 405.05 214.129 406.941 215.561C408.89 216.937 410.466 218.685 411.67 220.806C412.873 222.869 413.561 225.334 413.733 228.199H401.783ZM448.227 230.005C447.653 226.91 446.622 224.56 445.132 222.955C443.699 221.35 441.492 220.548 438.512 220.548C436.563 220.548 434.93 220.892 433.611 221.579C432.35 222.21 431.319 223.012 430.516 223.987C429.771 224.961 429.227 225.993 428.883 227.082C428.596 228.171 428.424 229.145 428.367 230.005H448.227ZM428.367 237.742C428.539 241.697 429.542 244.563 431.376 246.339C433.21 248.116 435.847 249.005 439.285 249.005C441.75 249.005 443.871 248.403 445.647 247.199C447.424 245.938 448.513 244.62 448.914 243.244H459.661C457.941 248.575 455.305 252.386 451.751 254.679C448.198 256.971 443.899 258.118 438.856 258.118C435.359 258.118 432.207 257.573 429.399 256.484C426.59 255.338 424.212 253.733 422.263 251.67C420.314 249.606 418.795 247.142 417.706 244.276C416.675 241.41 416.159 238.258 416.159 234.819C416.159 231.495 416.703 228.4 417.792 225.534C418.881 222.668 420.429 220.204 422.435 218.141C424.441 216.02 426.819 214.358 429.571 213.154C432.379 211.951 435.474 211.349 438.856 211.349C442.638 211.349 445.934 212.094 448.742 213.584C451.551 215.017 453.843 216.966 455.62 219.43C457.454 221.895 458.773 224.703 459.575 227.855C460.377 231.008 460.664 234.303 460.435 237.742H428.367Z" fill="#252525"/>
<path d="M182.004 164.208C181.959 162.593 181.667 161.044 181.129 159.563C180.635 158.082 179.917 156.781 178.974 155.659C178.032 154.492 176.888 153.572 175.541 152.899C174.195 152.181 172.669 151.822 170.964 151.822C169.213 151.822 167.665 152.181 166.319 152.899C164.972 153.572 163.828 154.492 162.885 155.659C161.943 156.781 161.18 158.105 160.597 159.631C160.058 161.112 159.699 162.638 159.52 164.208H182.004ZM159.52 167.776C159.52 169.302 159.721 170.895 160.125 172.556C160.574 174.172 161.27 175.63 162.212 176.932C163.155 178.233 164.344 179.31 165.78 180.163C167.216 181.016 168.944 181.442 170.964 181.442C174.06 181.442 176.484 180.634 178.234 179.018C179.984 177.403 181.196 175.249 181.869 172.556H186.11C185.213 176.505 183.552 179.557 181.129 181.711C178.75 183.865 175.362 184.942 170.964 184.942C168.226 184.942 165.847 184.471 163.828 183.529C161.853 182.541 160.238 181.218 158.981 179.557C157.724 177.852 156.782 175.899 156.154 173.7C155.57 171.456 155.278 169.1 155.278 166.632C155.278 164.343 155.57 162.099 156.154 159.9C156.782 157.701 157.724 155.749 158.981 154.043C160.238 152.293 161.853 150.902 163.828 149.87C165.847 148.793 168.226 148.254 170.964 148.254C173.746 148.254 176.125 148.815 178.099 149.937C180.074 151.059 181.667 152.54 182.879 154.38C184.136 156.175 185.033 158.262 185.572 160.641C186.11 162.974 186.335 165.353 186.245 167.776H159.52ZM189.985 135.935H194.226V184H189.985V135.935ZM225.298 164.208C225.253 162.593 224.961 161.044 224.423 159.563C223.929 158.082 223.211 156.781 222.269 155.659C221.326 154.492 220.182 153.572 218.835 152.899C217.489 152.181 215.963 151.822 214.258 151.822C212.507 151.822 210.959 152.181 209.613 152.899C208.266 153.572 207.122 154.492 206.179 155.659C205.237 156.781 204.474 158.105 203.891 159.631C203.352 161.112 202.993 162.638 202.814 164.208H225.298ZM202.814 167.776C202.814 169.302 203.016 170.895 203.419 172.556C203.868 174.172 204.564 175.63 205.506 176.932C206.449 178.233 207.638 179.31 209.074 180.163C210.51 181.016 212.238 181.442 214.258 181.442C217.354 181.442 219.778 180.634 221.528 179.018C223.278 177.403 224.49 175.249 225.163 172.556H229.404C228.507 176.505 226.846 179.557 224.423 181.711C222.044 183.865 218.656 184.942 214.258 184.942C211.52 184.942 209.141 184.471 207.122 183.529C205.147 182.541 203.532 181.218 202.275 179.557C201.018 177.852 200.076 175.899 199.448 173.7C198.864 171.456 198.573 169.1 198.573 166.632C198.573 164.343 198.864 162.099 199.448 159.9C200.076 157.701 201.018 155.749 202.275 154.043C203.532 152.293 205.147 150.902 207.122 149.87C209.141 148.793 211.52 148.254 214.258 148.254C217.04 148.254 219.419 148.815 221.393 149.937C223.368 151.059 224.961 152.54 226.173 154.38C227.43 156.175 228.327 158.262 228.866 160.641C229.404 162.974 229.629 165.353 229.539 167.776H202.814ZM229.307 149.264H234.019L244.925 179.759H245.059L255.83 149.264H260.206L247.214 184H242.703L229.307 149.264ZM261.949 159.9C262.084 157.881 262.51 156.13 263.228 154.649C263.946 153.168 264.911 151.957 266.123 151.014C267.379 150.072 268.838 149.376 270.498 148.927C272.159 148.478 273.999 148.254 276.018 148.254C277.544 148.254 279.07 148.411 280.596 148.725C282.122 148.995 283.491 149.533 284.702 150.341C285.914 151.149 286.902 152.293 287.664 153.774C288.427 155.21 288.809 157.095 288.809 159.429V177.874C288.809 179.579 289.639 180.432 291.3 180.432C291.793 180.432 292.242 180.342 292.646 180.163V183.731C292.152 183.82 291.704 183.888 291.3 183.933C290.941 183.978 290.469 184 289.886 184C288.809 184 287.934 183.865 287.261 183.596C286.632 183.282 286.139 182.856 285.78 182.317C285.421 181.778 285.174 181.15 285.039 180.432C284.949 179.669 284.904 178.839 284.904 177.941H284.77C284.007 179.063 283.221 180.073 282.414 180.971C281.651 181.823 280.776 182.541 279.788 183.125C278.846 183.708 277.746 184.157 276.49 184.471C275.278 184.785 273.819 184.942 272.114 184.942C270.498 184.942 268.972 184.741 267.536 184.337C266.145 183.978 264.911 183.394 263.834 182.586C262.802 181.734 261.971 180.679 261.343 179.422C260.76 178.121 260.468 176.595 260.468 174.845C260.468 172.421 261.006 170.536 262.084 169.19C263.161 167.799 264.574 166.744 266.325 166.026C268.12 165.308 270.117 164.814 272.316 164.545C274.56 164.231 276.826 163.939 279.115 163.67C280.013 163.58 280.798 163.468 281.471 163.333C282.144 163.199 282.705 162.974 283.154 162.66C283.603 162.301 283.94 161.83 284.164 161.246C284.433 160.663 284.568 159.9 284.568 158.958C284.568 157.522 284.321 156.355 283.827 155.457C283.379 154.515 282.728 153.774 281.875 153.236C281.067 152.697 280.102 152.338 278.98 152.158C277.903 151.934 276.736 151.822 275.48 151.822C272.787 151.822 270.588 152.473 268.883 153.774C267.177 155.031 266.28 157.073 266.19 159.9H261.949ZM284.568 165.016H284.433C284.164 165.51 283.648 165.869 282.885 166.093C282.122 166.318 281.449 166.475 280.865 166.565C279.07 166.879 277.208 167.17 275.278 167.44C273.393 167.664 271.665 168.023 270.094 168.517C268.524 169.01 267.222 169.729 266.19 170.671C265.203 171.569 264.709 172.87 264.709 174.575C264.709 175.653 264.911 176.617 265.315 177.47C265.764 178.278 266.347 178.996 267.065 179.624C267.783 180.208 268.613 180.657 269.556 180.971C270.498 181.285 271.463 181.442 272.451 181.442C274.066 181.442 275.615 181.195 277.096 180.701C278.577 180.208 279.856 179.49 280.933 178.547C282.055 177.605 282.93 176.46 283.558 175.114C284.231 173.768 284.568 172.242 284.568 170.536V165.016ZM301.973 149.264H309.042V152.832H301.973V176.258C301.973 177.65 302.153 178.749 302.512 179.557C302.916 180.32 303.881 180.746 305.407 180.836C306.618 180.836 307.83 180.769 309.042 180.634V184.202C308.413 184.202 307.785 184.224 307.157 184.269C306.528 184.314 305.9 184.337 305.272 184.337C302.445 184.337 300.47 183.798 299.348 182.721C298.226 181.599 297.687 179.557 297.732 176.595V152.832H291.674V149.264H297.732V138.829H301.973V149.264ZM338.116 164.208C338.071 162.593 337.78 161.044 337.241 159.563C336.748 158.082 336.029 156.781 335.087 155.659C334.145 154.492 333 153.572 331.654 152.899C330.307 152.181 328.782 151.822 327.076 151.822C325.326 151.822 323.778 152.181 322.431 152.899C321.085 153.572 319.94 154.492 318.998 155.659C318.055 156.781 317.293 158.105 316.709 159.631C316.171 161.112 315.812 162.638 315.632 164.208H338.116ZM315.632 167.776C315.632 169.302 315.834 170.895 316.238 172.556C316.687 174.172 317.382 175.63 318.325 176.932C319.267 178.233 320.457 179.31 321.893 180.163C323.329 181.016 325.057 181.442 327.076 181.442C330.173 181.442 332.596 180.634 334.347 179.018C336.097 177.403 337.309 175.249 337.982 172.556H342.223C341.325 176.505 339.665 179.557 337.241 181.711C334.863 183.865 331.474 184.942 327.076 184.942C324.339 184.942 321.96 184.471 319.94 183.529C317.966 182.541 316.35 181.218 315.093 179.557C313.837 177.852 312.894 175.899 312.266 173.7C311.683 171.456 311.391 169.1 311.391 166.632C311.391 164.343 311.683 162.099 312.266 159.9C312.894 157.701 313.837 155.749 315.093 154.043C316.35 152.293 317.966 150.902 319.94 149.87C321.96 148.793 324.339 148.254 327.076 148.254C329.859 148.254 332.237 148.815 334.212 149.937C336.187 151.059 337.78 152.54 338.991 154.38C340.248 156.175 341.146 158.262 341.684 160.641C342.223 162.974 342.447 165.353 342.357 167.776H315.632Z" fill="#252525"/>
<path d="M63.8013 306.6H68.5413C68.8613 306.6 69.2613 306.58 69.7413 306.54C70.2213 306.48 70.7313 306.36 71.2713 306.18C71.8113 305.98 72.3413 305.7 72.8613 305.34C73.4013 304.98 73.8813 304.49 74.3013 303.87C74.7213 303.25 75.0613 302.48 75.3213 301.56C75.6013 300.62 75.7413 299.49 75.7413 298.17C75.7413 296.89 75.6113 295.75 75.3513 294.75C75.1113 293.73 74.7013 292.87 74.1213 292.17C73.5613 291.45 72.8313 290.91 71.9313 290.55C71.0313 290.17 69.9213 289.98 68.6013 289.98H63.8013V306.6ZM60.9513 287.58H68.3013C71.6013 287.58 74.1413 288.42 75.9213 290.1C77.7013 291.78 78.5913 294.34 78.5913 297.78C78.5913 299.58 78.3913 301.18 77.9913 302.58C77.5913 303.96 76.9713 305.13 76.1313 306.09C75.2913 307.03 74.2213 307.75 72.9213 308.25C71.6213 308.75 70.0813 309 68.3013 309H60.9513V287.58ZM92.4244 299.76C92.3844 299.16 92.2444 298.59 92.0044 298.05C91.7844 297.51 91.4744 297.05 91.0744 296.67C90.6944 296.27 90.2344 295.96 89.6944 295.74C89.1744 295.5 88.5944 295.38 87.9544 295.38C87.2944 295.38 86.6944 295.5 86.1544 295.74C85.6344 295.96 85.1844 296.27 84.8044 296.67C84.4244 297.07 84.1244 297.54 83.9044 298.08C83.6844 298.6 83.5544 299.16 83.5144 299.76H92.4244ZM94.8844 304.08C94.5444 305.82 93.7944 307.13 92.6344 308.01C91.4744 308.89 90.0144 309.33 88.2544 309.33C87.0144 309.33 85.9344 309.13 85.0144 308.73C84.1144 308.33 83.3544 307.77 82.7344 307.05C82.1144 306.33 81.6444 305.47 81.3244 304.47C81.0244 303.47 80.8544 302.38 80.8144 301.2C80.8144 300.02 80.9944 298.94 81.3544 297.96C81.7144 296.98 82.2144 296.13 82.8544 295.41C83.5144 294.69 84.2844 294.13 85.1644 293.73C86.0644 293.33 87.0444 293.13 88.1044 293.13C89.4844 293.13 90.6244 293.42 91.5244 294C92.4444 294.56 93.1744 295.28 93.7144 296.16C94.2744 297.04 94.6544 298 94.8544 299.04C95.0744 300.08 95.1644 301.07 95.1244 302.01H83.5144C83.4944 302.69 83.5744 303.34 83.7544 303.96C83.9344 304.56 84.2244 305.1 84.6244 305.58C85.0244 306.04 85.5344 306.41 86.1544 306.69C86.7744 306.97 87.5044 307.11 88.3444 307.11C89.4244 307.11 90.3044 306.86 90.9844 306.36C91.6844 305.86 92.1444 305.1 92.3644 304.08H94.8844ZM108.298 298.47C108.098 297.49 107.678 296.73 107.038 296.19C106.398 295.65 105.538 295.38 104.458 295.38C103.538 295.38 102.768 295.55 102.148 295.89C101.528 296.23 101.028 296.68 100.648 297.24C100.288 297.8 100.028 298.45 99.8677 299.19C99.7077 299.91 99.6277 300.66 99.6277 301.44C99.6277 302.16 99.7077 302.86 99.8677 303.54C100.048 304.22 100.318 304.83 100.678 305.37C101.038 305.89 101.508 306.31 102.088 306.63C102.668 306.95 103.358 307.11 104.158 307.11C105.418 307.11 106.398 306.78 107.098 306.12C107.818 305.46 108.258 304.53 108.418 303.33H111.028C110.748 305.25 110.028 306.73 108.868 307.77C107.728 308.81 106.168 309.33 104.188 309.33C103.008 309.33 101.958 309.14 101.038 308.76C100.138 308.38 99.3777 307.84 98.7577 307.14C98.1577 306.44 97.6977 305.61 97.3777 304.65C97.0777 303.67 96.9277 302.6 96.9277 301.44C96.9277 300.28 97.0777 299.2 97.3777 298.2C97.6777 297.18 98.1277 296.3 98.7277 295.56C99.3477 294.8 100.118 294.21 101.038 293.79C101.958 293.35 103.028 293.13 104.248 293.13C105.128 293.13 105.948 293.24 106.708 293.46C107.488 293.66 108.168 293.98 108.748 294.42C109.348 294.86 109.838 295.42 110.218 296.1C110.598 296.76 110.838 297.55 110.938 298.47H108.298ZM115.741 301.26C115.741 302.2 115.861 303.04 116.101 303.78C116.361 304.5 116.711 305.11 117.151 305.61C117.591 306.09 118.101 306.46 118.681 306.72C119.281 306.98 119.911 307.11 120.571 307.11C121.231 307.11 121.851 306.98 122.431 306.72C123.031 306.46 123.551 306.09 123.991 305.61C124.431 305.11 124.771 304.5 125.011 303.78C125.271 303.04 125.401 302.2 125.401 301.26C125.401 300.32 125.271 299.49 125.011 298.77C124.771 298.03 124.431 297.41 123.991 296.91C123.551 296.41 123.031 296.03 122.431 295.77C121.851 295.51 121.231 295.38 120.571 295.38C119.911 295.38 119.281 295.51 118.681 295.77C118.101 296.03 117.591 296.41 117.151 296.91C116.711 297.41 116.361 298.03 116.101 298.77C115.861 299.49 115.741 300.32 115.741 301.26ZM113.041 301.26C113.041 300.12 113.201 299.06 113.521 298.08C113.841 297.08 114.321 296.22 114.961 295.5C115.601 294.76 116.391 294.18 117.331 293.76C118.271 293.34 119.351 293.13 120.571 293.13C121.811 293.13 122.891 293.34 123.811 293.76C124.751 294.18 125.541 294.76 126.181 295.5C126.821 296.22 127.301 297.08 127.621 298.08C127.941 299.06 128.101 300.12 128.101 301.26C128.101 302.4 127.941 303.46 127.621 304.44C127.301 305.42 126.821 306.28 126.181 307.02C125.541 307.74 124.751 308.31 123.811 308.73C122.891 309.13 121.811 309.33 120.571 309.33C119.351 309.33 118.271 309.13 117.331 308.73C116.391 308.31 115.601 307.74 114.961 307.02C114.321 306.28 113.841 305.42 113.521 304.44C113.201 303.46 113.041 302.4 113.041 301.26ZM131.018 293.49H133.418V296.76H133.478C134.098 295.5 134.858 294.57 135.758 293.97C136.658 293.37 137.798 293.09 139.178 293.13V295.83C138.158 295.83 137.288 295.97 136.568 296.25C135.848 296.53 135.268 296.94 134.828 297.48C134.388 298.02 134.068 298.68 133.868 299.46C133.668 300.22 133.568 301.1 133.568 302.1V309H131.018V293.49ZM151.307 301.38C151.307 302.1 151.397 302.81 151.577 303.51C151.777 304.19 152.067 304.8 152.447 305.34C152.847 305.88 153.347 306.31 153.947 306.63C154.567 306.95 155.287 307.11 156.107 307.11C156.967 307.11 157.697 306.94 158.297 306.6C158.897 306.26 159.387 305.82 159.767 305.28C160.147 304.72 160.417 304.09 160.577 303.39C160.757 302.69 160.847 301.98 160.847 301.26C160.847 300.5 160.757 299.77 160.577 299.07C160.397 298.35 160.107 297.72 159.707 297.18C159.327 296.64 158.827 296.21 158.207 295.89C157.587 295.55 156.837 295.38 155.957 295.38C155.097 295.38 154.367 295.55 153.767 295.89C153.167 296.23 152.687 296.68 152.327 297.24C151.967 297.8 151.707 298.44 151.547 299.16C151.387 299.88 151.307 300.62 151.307 301.38ZM163.307 309H160.757V306.9H160.697C160.277 307.76 159.617 308.38 158.717 308.76C157.817 309.14 156.827 309.33 155.747 309.33C154.547 309.33 153.497 309.11 152.597 308.67C151.717 308.23 150.977 307.64 150.377 306.9C149.797 306.16 149.357 305.3 149.057 304.32C148.757 303.34 148.607 302.3 148.607 301.2C148.607 300.1 148.747 299.06 149.027 298.08C149.327 297.1 149.767 296.25 150.347 295.53C150.947 294.79 151.687 294.21 152.567 293.79C153.467 293.35 154.507 293.13 155.687 293.13C156.087 293.13 156.517 293.17 156.977 293.25C157.437 293.33 157.897 293.47 158.357 293.67C158.817 293.85 159.247 294.1 159.647 294.42C160.067 294.72 160.417 295.1 160.697 295.56H160.757V287.58H163.307V309ZM178.001 299.76C177.961 299.16 177.821 298.59 177.581 298.05C177.361 297.51 177.051 297.05 176.651 296.67C176.271 296.27 175.811 295.96 175.271 295.74C174.751 295.5 174.171 295.38 173.531 295.38C172.871 295.38 172.271 295.5 171.731 295.74C171.211 295.96 170.761 296.27 170.381 296.67C170.001 297.07 169.701 297.54 169.481 298.08C169.261 298.6 169.131 299.16 169.091 299.76H178.001ZM180.461 304.08C180.121 305.82 179.371 307.13 178.211 308.01C177.051 308.89 175.591 309.33 173.831 309.33C172.591 309.33 171.511 309.13 170.591 308.73C169.691 308.33 168.931 307.77 168.311 307.05C167.691 306.33 167.221 305.47 166.901 304.47C166.601 303.47 166.431 302.38 166.391 301.2C166.391 300.02 166.571 298.94 166.931 297.96C167.291 296.98 167.791 296.13 168.431 295.41C169.091 294.69 169.861 294.13 170.741 293.73C171.641 293.33 172.621 293.13 173.681 293.13C175.061 293.13 176.201 293.42 177.101 294C178.021 294.56 178.751 295.28 179.291 296.16C179.851 297.04 180.231 298 180.431 299.04C180.651 300.08 180.741 301.07 180.701 302.01H169.091C169.071 302.69 169.151 303.34 169.331 303.96C169.511 304.56 169.801 305.1 170.201 305.58C170.601 306.04 171.111 306.41 171.731 306.69C172.351 306.97 173.081 307.11 173.921 307.11C175.001 307.11 175.881 306.86 176.561 306.36C177.261 305.86 177.721 305.1 177.941 304.08H180.461ZM197.084 308.94C196.644 309.2 196.034 309.33 195.254 309.33C194.594 309.33 194.064 309.15 193.664 308.79C193.284 308.41 193.094 307.8 193.094 306.96C192.394 307.8 191.574 308.41 190.634 308.79C189.714 309.15 188.714 309.33 187.634 309.33C186.934 309.33 186.264 309.25 185.624 309.09C185.004 308.93 184.464 308.68 184.004 308.34C183.544 308 183.174 307.56 182.894 307.02C182.634 306.46 182.504 305.79 182.504 305.01C182.504 304.13 182.654 303.41 182.954 302.85C183.254 302.29 183.644 301.84 184.124 301.5C184.624 301.14 185.184 300.87 185.804 300.69C186.444 300.51 187.094 300.36 187.754 300.24C188.454 300.1 189.114 300 189.734 299.94C190.374 299.86 190.934 299.76 191.414 299.64C191.894 299.5 192.274 299.31 192.554 299.07C192.834 298.81 192.974 298.44 192.974 297.96C192.974 297.4 192.864 296.95 192.644 296.61C192.444 296.27 192.174 296.01 191.834 295.83C191.514 295.65 191.144 295.53 190.724 295.47C190.324 295.41 189.924 295.38 189.524 295.38C188.444 295.38 187.544 295.59 186.824 296.01C186.104 296.41 185.714 297.18 185.654 298.32H183.104C183.144 297.36 183.344 296.55 183.704 295.89C184.064 295.23 184.544 294.7 185.144 294.3C185.744 293.88 186.424 293.58 187.184 293.4C187.964 293.22 188.794 293.13 189.674 293.13C190.374 293.13 191.064 293.18 191.744 293.28C192.444 293.38 193.074 293.59 193.634 293.91C194.194 294.21 194.644 294.64 194.984 295.2C195.324 295.76 195.494 296.49 195.494 297.39V305.37C195.494 305.97 195.524 306.41 195.584 306.69C195.664 306.97 195.904 307.11 196.304 307.11C196.524 307.11 196.784 307.06 197.084 306.96V308.94ZM192.944 300.99C192.624 301.23 192.204 301.41 191.684 301.53C191.164 301.63 190.614 301.72 190.034 301.8C189.474 301.86 188.904 301.94 188.324 302.04C187.744 302.12 187.224 302.26 186.764 302.46C186.304 302.66 185.924 302.95 185.624 303.33C185.344 303.69 185.204 304.19 185.204 304.83C185.204 305.25 185.284 305.61 185.444 305.91C185.624 306.19 185.844 306.42 186.104 306.6C186.384 306.78 186.704 306.91 187.064 306.99C187.424 307.07 187.804 307.11 188.204 307.11C189.044 307.11 189.764 307 190.364 306.78C190.964 306.54 191.454 306.25 191.834 305.91C192.214 305.55 192.494 305.17 192.674 304.77C192.854 304.35 192.944 303.96 192.944 303.6V300.99ZM199.607 287.58H202.157V309H199.607V287.58ZM207.668 304.11C207.688 304.67 207.818 305.15 208.058 305.55C208.298 305.93 208.608 306.24 208.988 306.48C209.388 306.7 209.828 306.86 210.308 306.96C210.808 307.06 211.318 307.11 211.838 307.11C212.238 307.11 212.658 307.08 213.098 307.02C213.538 306.96 213.938 306.85 214.298 306.69C214.678 306.53 214.988 306.3 215.228 306C215.468 305.68 215.588 305.28 215.588 304.8C215.588 304.14 215.338 303.64 214.838 303.3C214.338 302.96 213.708 302.69 212.948 302.49C212.208 302.27 211.398 302.08 210.518 301.92C209.638 301.74 208.818 301.5 208.058 301.2C207.318 300.88 206.698 300.44 206.198 299.88C205.698 299.32 205.448 298.54 205.448 297.54C205.448 296.76 205.618 296.09 205.958 295.53C206.318 294.97 206.768 294.52 207.308 294.18C207.868 293.82 208.488 293.56 209.168 293.4C209.868 293.22 210.558 293.13 211.238 293.13C212.118 293.13 212.928 293.21 213.668 293.37C214.408 293.51 215.058 293.77 215.618 294.15C216.198 294.51 216.658 295.01 216.998 295.65C217.338 296.27 217.538 297.05 217.598 297.99H215.048C215.008 297.49 214.878 297.08 214.658 296.76C214.438 296.42 214.158 296.15 213.818 295.95C213.478 295.75 213.098 295.61 212.678 295.53C212.278 295.43 211.868 295.38 211.448 295.38C211.068 295.38 210.678 295.41 210.278 295.47C209.898 295.53 209.548 295.64 209.228 295.8C208.908 295.94 208.648 296.14 208.448 296.4C208.248 296.64 208.147 296.96 208.147 297.36C208.147 297.8 208.297 298.17 208.597 298.47C208.918 298.75 209.318 298.99 209.798 299.19C210.278 299.37 210.818 299.53 211.418 299.67C212.018 299.79 212.618 299.92 213.218 300.06C213.858 300.2 214.478 300.37 215.078 300.57C215.698 300.77 216.238 301.04 216.698 301.38C217.178 301.7 217.558 302.11 217.838 302.61C218.138 303.11 218.288 303.73 218.288 304.47C218.288 305.41 218.088 306.19 217.688 306.81C217.308 307.43 216.798 307.93 216.158 308.31C215.538 308.69 214.828 308.95 214.028 309.09C213.248 309.25 212.468 309.33 211.688 309.33C210.828 309.33 210.008 309.24 209.228 309.06C208.448 308.88 207.758 308.59 207.158 308.19C206.558 307.77 206.078 307.23 205.718 306.57C205.358 305.89 205.158 305.07 205.118 304.11H207.668ZM230.507 295.74H227.897V293.49H230.507V291.18C230.507 289.92 230.867 288.97 231.587 288.33C232.327 287.67 233.397 287.34 234.797 287.34C235.037 287.34 235.307 287.36 235.607 287.4C235.927 287.44 236.207 287.5 236.447 287.58V289.8C236.227 289.72 235.987 289.67 235.727 289.65C235.467 289.61 235.227 289.59 235.007 289.59C234.387 289.59 233.907 289.71 233.567 289.95C233.227 290.19 233.057 290.65 233.057 291.33V293.49H236.057V295.74H233.057V309H230.507V295.74ZM240.194 301.26C240.194 302.2 240.314 303.04 240.554 303.78C240.814 304.5 241.164 305.11 241.604 305.61C242.044 306.09 242.554 306.46 243.134 306.72C243.734 306.98 244.364 307.11 245.024 307.11C245.684 307.11 246.304 306.98 246.884 306.72C247.484 306.46 248.004 306.09 248.444 305.61C248.884 305.11 249.224 304.5 249.464 303.78C249.724 303.04 249.854 302.2 249.854 301.26C249.854 300.32 249.724 299.49 249.464 298.77C249.224 298.03 248.884 297.41 248.444 296.91C248.004 296.41 247.484 296.03 246.884 295.77C246.304 295.51 245.684 295.38 245.024 295.38C244.364 295.38 243.734 295.51 243.134 295.77C242.554 296.03 242.044 296.41 241.604 296.91C241.164 297.41 240.814 298.03 240.554 298.77C240.314 299.49 240.194 300.32 240.194 301.26ZM237.494 301.26C237.494 300.12 237.654 299.06 237.974 298.08C238.294 297.08 238.774 296.22 239.414 295.5C240.054 294.76 240.844 294.18 241.784 293.76C242.724 293.34 243.804 293.13 245.024 293.13C246.264 293.13 247.344 293.34 248.264 293.76C249.204 294.18 249.994 294.76 250.634 295.5C251.274 296.22 251.754 297.08 252.074 298.08C252.394 299.06 252.554 300.12 252.554 301.26C252.554 302.4 252.394 303.46 252.074 304.44C251.754 305.42 251.274 306.28 250.634 307.02C249.994 307.74 249.204 308.31 248.264 308.73C247.344 309.13 246.264 309.33 245.024 309.33C243.804 309.33 242.724 309.13 241.784 308.73C240.844 308.31 240.054 307.74 239.414 307.02C238.774 306.28 238.294 305.42 237.974 304.44C237.654 303.46 237.494 302.4 237.494 301.26ZM255.471 293.49H257.871V296.76H257.931C258.551 295.5 259.311 294.57 260.211 293.97C261.111 293.37 262.251 293.09 263.631 293.13V295.83C262.611 295.83 261.741 295.97 261.021 296.25C260.301 296.53 259.721 296.94 259.281 297.48C258.841 298.02 258.521 298.68 258.321 299.46C258.121 300.22 258.021 301.1 258.021 302.1V309H255.471V293.49ZM284.67 299.76C284.63 299.16 284.49 298.59 284.25 298.05C284.03 297.51 283.72 297.05 283.32 296.67C282.94 296.27 282.48 295.96 281.94 295.74C281.42 295.5 280.84 295.38 280.2 295.38C279.54 295.38 278.94 295.5 278.4 295.74C277.88 295.96 277.43 296.27 277.05 296.67C276.67 297.07 276.37 297.54 276.15 298.08C275.93 298.6 275.8 299.16 275.76 299.76H284.67ZM287.13 304.08C286.79 305.82 286.04 307.13 284.88 308.01C283.72 308.89 282.26 309.33 280.5 309.33C279.26 309.33 278.18 309.13 277.26 308.73C276.36 308.33 275.6 307.77 274.98 307.05C274.36 306.33 273.89 305.47 273.57 304.47C273.27 303.47 273.1 302.38 273.06 301.2C273.06 300.02 273.24 298.94 273.6 297.96C273.96 296.98 274.46 296.13 275.1 295.41C275.76 294.69 276.53 294.13 277.41 293.73C278.31 293.33 279.29 293.13 280.35 293.13C281.73 293.13 282.87 293.42 283.77 294C284.69 294.56 285.42 295.28 285.96 296.16C286.52 297.04 286.9 298 287.1 299.04C287.32 300.08 287.41 301.07 287.37 302.01H275.76C275.74 302.69 275.82 303.34 276 303.96C276.18 304.56 276.47 305.1 276.87 305.58C277.27 306.04 277.78 306.41 278.4 306.69C279.02 306.97 279.75 307.11 280.59 307.11C281.67 307.11 282.55 306.86 283.23 306.36C283.93 305.86 284.39 305.1 284.61 304.08H287.13ZM297.004 309H294.274L288.514 293.49H291.364L295.714 306.42H295.774L300.004 293.49H302.674L297.004 309ZM315.784 299.76C315.744 299.16 315.604 298.59 315.364 298.05C315.144 297.51 314.834 297.05 314.434 296.67C314.054 296.27 313.594 295.96 313.054 295.74C312.534 295.5 311.954 295.38 311.314 295.38C310.654 295.38 310.054 295.5 309.514 295.74C308.994 295.96 308.544 296.27 308.164 296.67C307.784 297.07 307.484 297.54 307.264 298.08C307.044 298.6 306.914 299.16 306.874 299.76H315.784ZM318.244 304.08C317.904 305.82 317.154 307.13 315.994 308.01C314.834 308.89 313.374 309.33 311.614 309.33C310.374 309.33 309.294 309.13 308.374 308.73C307.474 308.33 306.714 307.77 306.094 307.05C305.474 306.33 305.004 305.47 304.684 304.47C304.384 303.47 304.214 302.38 304.174 301.2C304.174 300.02 304.354 298.94 304.714 297.96C305.074 296.98 305.574 296.13 306.214 295.41C306.874 294.69 307.644 294.13 308.524 293.73C309.424 293.33 310.404 293.13 311.464 293.13C312.844 293.13 313.984 293.42 314.884 294C315.804 294.56 316.534 295.28 317.074 296.16C317.634 297.04 318.014 298 318.214 299.04C318.434 300.08 318.524 301.07 318.484 302.01H306.874C306.854 302.69 306.934 303.34 307.114 303.96C307.294 304.56 307.584 305.1 307.984 305.58C308.384 306.04 308.894 306.41 309.514 306.69C310.134 306.97 310.864 307.11 311.704 307.11C312.784 307.11 313.664 306.86 314.344 306.36C315.044 305.86 315.504 305.1 315.724 304.08H318.244ZM321.037 293.49H323.437V296.76H323.497C324.117 295.5 324.877 294.57 325.777 293.97C326.677 293.37 327.817 293.09 329.197 293.13V295.83C328.177 295.83 327.307 295.97 326.587 296.25C325.867 296.53 325.287 296.94 324.847 297.48C324.407 298.02 324.087 298.68 323.887 299.46C323.687 300.22 323.587 301.1 323.587 302.1V309H321.037V293.49ZM337.207 311.07C336.907 311.83 336.607 312.47 336.307 312.99C336.027 313.51 335.707 313.93 335.347 314.25C335.007 314.59 334.617 314.83 334.177 314.97C333.757 315.13 333.267 315.21 332.707 315.21C332.407 315.21 332.107 315.19 331.807 315.15C331.507 315.11 331.217 315.04 330.937 314.94V312.6C331.157 312.7 331.407 312.78 331.687 312.84C331.987 312.92 332.237 312.96 332.437 312.96C332.957 312.96 333.387 312.83 333.727 312.57C334.087 312.33 334.357 311.98 334.537 311.52L335.587 308.91L329.437 293.49H332.317L336.847 306.18H336.907L341.257 293.49H343.957L337.207 311.07ZM354.377 293.49H356.777V296.76H356.837C357.457 295.5 358.217 294.57 359.117 293.97C360.017 293.37 361.157 293.09 362.537 293.13V295.83C361.517 295.83 360.647 295.97 359.927 296.25C359.207 296.53 358.627 296.94 358.187 297.48C357.747 298.02 357.427 298.68 357.227 299.46C357.027 300.22 356.927 301.1 356.927 302.1V309H354.377V293.49ZM365.79 301.26C365.79 302.2 365.91 303.04 366.15 303.78C366.41 304.5 366.76 305.11 367.2 305.61C367.64 306.09 368.15 306.46 368.73 306.72C369.33 306.98 369.96 307.11 370.62 307.11C371.28 307.11 371.9 306.98 372.48 306.72C373.08 306.46 373.6 306.09 374.04 305.61C374.48 305.11 374.82 304.5 375.06 303.78C375.32 303.04 375.45 302.2 375.45 301.26C375.45 300.32 375.32 299.49 375.06 298.77C374.82 298.03 374.48 297.41 374.04 296.91C373.6 296.41 373.08 296.03 372.48 295.77C371.9 295.51 371.28 295.38 370.62 295.38C369.96 295.38 369.33 295.51 368.73 295.77C368.15 296.03 367.64 296.41 367.2 296.91C366.76 297.41 366.41 298.03 366.15 298.77C365.91 299.49 365.79 300.32 365.79 301.26ZM363.09 301.26C363.09 300.12 363.25 299.06 363.57 298.08C363.89 297.08 364.37 296.22 365.01 295.5C365.65 294.76 366.44 294.18 367.38 293.76C368.32 293.34 369.4 293.13 370.62 293.13C371.86 293.13 372.94 293.34 373.86 293.76C374.8 294.18 375.59 294.76 376.23 295.5C376.87 296.22 377.35 297.08 377.67 298.08C377.99 299.06 378.15 300.12 378.15 301.26C378.15 302.4 377.99 303.46 377.67 304.44C377.35 305.42 376.87 306.28 376.23 307.02C375.59 307.74 374.8 308.31 373.86 308.73C372.94 309.13 371.86 309.33 370.62 309.33C369.4 309.33 368.32 309.13 367.38 308.73C366.44 308.31 365.65 307.74 365.01 307.02C364.37 306.28 363.89 305.42 363.57 304.44C363.25 303.46 363.09 302.4 363.09 301.26ZM383.016 301.26C383.016 302.2 383.136 303.04 383.376 303.78C383.636 304.5 383.986 305.11 384.426 305.61C384.866 306.09 385.376 306.46 385.956 306.72C386.556 306.98 387.186 307.11 387.846 307.11C388.506 307.11 389.126 306.98 389.706 306.72C390.306 306.46 390.826 306.09 391.266 305.61C391.706 305.11 392.046 304.5 392.286 303.78C392.546 303.04 392.676 302.2 392.676 301.26C392.676 300.32 392.546 299.49 392.286 298.77C392.046 298.03 391.706 297.41 391.266 296.91C390.826 296.41 390.306 296.03 389.706 295.77C389.126 295.51 388.506 295.38 387.846 295.38C387.186 295.38 386.556 295.51 385.956 295.77C385.376 296.03 384.866 296.41 384.426 296.91C383.986 297.41 383.636 298.03 383.376 298.77C383.136 299.49 383.016 300.32 383.016 301.26ZM380.316 301.26C380.316 300.12 380.476 299.06 380.796 298.08C381.116 297.08 381.596 296.22 382.236 295.5C382.876 294.76 383.666 294.18 384.606 293.76C385.546 293.34 386.626 293.13 387.846 293.13C389.086 293.13 390.166 293.34 391.086 293.76C392.026 294.18 392.816 294.76 393.456 295.5C394.096 296.22 394.576 297.08 394.896 298.08C395.216 299.06 395.376 300.12 395.376 301.26C395.376 302.4 395.216 303.46 394.896 304.44C394.576 305.42 394.096 306.28 393.456 307.02C392.816 307.74 392.026 308.31 391.086 308.73C390.166 309.13 389.086 309.33 387.846 309.33C386.626 309.33 385.546 309.13 384.606 308.73C383.666 308.31 382.876 307.74 382.236 307.02C381.596 306.28 381.116 305.42 380.796 304.44C380.476 303.46 380.316 302.4 380.316 301.26ZM398.383 293.49H400.783V295.77H400.843C402.003 294.01 403.673 293.13 405.853 293.13C406.813 293.13 407.683 293.33 408.463 293.73C409.243 294.13 409.793 294.81 410.113 295.77C410.633 294.93 411.313 294.28 412.153 293.82C413.013 293.36 413.953 293.13 414.973 293.13C415.753 293.13 416.453 293.22 417.073 293.4C417.713 293.56 418.253 293.82 418.693 294.18C419.153 294.54 419.503 295.01 419.743 295.59C420.003 296.15 420.133 296.83 420.133 297.63V309H417.583V298.83C417.583 298.35 417.543 297.9 417.463 297.48C417.383 297.06 417.233 296.7 417.013 296.4C416.793 296.08 416.483 295.83 416.083 295.65C415.703 295.47 415.203 295.38 414.583 295.38C413.323 295.38 412.333 295.74 411.613 296.46C410.893 297.18 410.533 298.14 410.533 299.34V309H407.983V298.83C407.983 298.33 407.933 297.87 407.833 297.45C407.753 297.03 407.603 296.67 407.383 296.37C407.163 296.05 406.863 295.81 406.483 295.65C406.123 295.47 405.653 295.38 405.073 295.38C404.333 295.38 403.693 295.53 403.153 295.83C402.633 296.13 402.203 296.49 401.863 296.91C401.543 297.33 401.303 297.77 401.143 298.23C401.003 298.67 400.933 299.04 400.933 299.34V309H398.383V293.49ZM424.529 305.67H427.859V309H424.529V305.67Z" fill="#252525"/>
<rect x="165" y="341" width="166.909" height="48" rx="4" fill="#ED0000"/>
<path d="M210.516 361.912H212.332C212.305 361.118 212.15 360.439 211.868 359.875C211.599 359.296 211.222 358.819 210.738 358.442C210.268 358.066 209.716 357.79 209.084 357.615C208.452 357.441 207.766 357.353 207.027 357.353C206.368 357.353 205.722 357.441 205.09 357.615C204.472 357.777 203.914 358.032 203.416 358.382C202.932 358.718 202.542 359.155 202.246 359.693C201.95 360.217 201.803 360.843 201.803 361.569C201.803 362.228 201.93 362.779 202.186 363.223C202.455 363.653 202.804 364.01 203.235 364.292C203.678 364.561 204.176 364.783 204.727 364.958C205.279 365.119 205.837 365.267 206.402 365.401C206.98 365.522 207.545 365.643 208.096 365.764C208.647 365.885 209.138 366.047 209.568 366.249C210.012 366.437 210.362 366.686 210.617 366.995C210.886 367.304 211.021 367.708 211.021 368.205C211.021 368.73 210.913 369.16 210.698 369.496C210.483 369.832 210.2 370.101 209.851 370.303C209.501 370.491 209.104 370.626 208.661 370.706C208.23 370.787 207.8 370.827 207.37 370.827C206.832 370.827 206.307 370.76 205.796 370.626C205.285 370.491 204.835 370.283 204.445 370C204.068 369.718 203.759 369.362 203.517 368.931C203.288 368.488 203.174 367.963 203.174 367.358H201.359C201.359 368.232 201.513 368.992 201.823 369.637C202.145 370.269 202.576 370.794 203.114 371.211C203.665 371.614 204.297 371.917 205.01 372.118C205.736 372.32 206.502 372.421 207.309 372.421C207.968 372.421 208.627 372.34 209.286 372.179C209.958 372.031 210.563 371.789 211.101 371.453C211.639 371.103 212.076 370.659 212.412 370.121C212.762 369.57 212.937 368.911 212.937 368.145C212.937 367.432 212.802 366.84 212.534 366.37C212.278 365.899 211.928 365.509 211.485 365.2C211.054 364.89 210.563 364.648 210.012 364.474C209.461 364.285 208.896 364.124 208.318 363.989C207.753 363.855 207.195 363.734 206.644 363.626C206.092 363.505 205.595 363.357 205.151 363.183C204.721 363.008 204.371 362.786 204.102 362.517C203.847 362.235 203.719 361.871 203.719 361.428C203.719 360.957 203.806 360.567 203.981 360.258C204.169 359.935 204.411 359.68 204.707 359.491C205.016 359.303 205.366 359.169 205.756 359.088C206.146 359.007 206.543 358.967 206.946 358.967C207.941 358.967 208.755 359.202 209.387 359.673C210.032 360.13 210.409 360.876 210.516 361.912ZM214.983 357.696V372.098H216.698V366.208C216.698 365.738 216.758 365.307 216.879 364.917C217.014 364.514 217.209 364.164 217.464 363.868C217.72 363.573 218.036 363.344 218.412 363.183C218.802 363.021 219.259 362.941 219.784 362.941C220.443 362.941 220.96 363.129 221.337 363.505C221.713 363.882 221.902 364.393 221.902 365.038V372.098H223.616V365.24C223.616 364.675 223.556 364.164 223.435 363.707C223.327 363.236 223.132 362.833 222.85 362.497C222.567 362.161 222.198 361.898 221.74 361.71C221.283 361.522 220.712 361.428 220.026 361.428C219.716 361.428 219.394 361.461 219.058 361.529C218.735 361.596 218.419 361.703 218.11 361.851C217.814 361.986 217.545 362.167 217.303 362.396C217.061 362.611 216.872 362.88 216.738 363.203H216.698V357.696H214.983ZM227.442 366.894C227.442 366.262 227.523 365.704 227.684 365.22C227.859 364.722 228.094 364.305 228.39 363.969C228.686 363.633 229.029 363.378 229.419 363.203C229.822 363.028 230.246 362.941 230.689 362.941C231.133 362.941 231.55 363.028 231.94 363.203C232.343 363.378 232.693 363.633 232.989 363.969C233.285 364.305 233.513 364.722 233.675 365.22C233.85 365.704 233.937 366.262 233.937 366.894C233.937 367.526 233.85 368.091 233.675 368.588C233.513 369.072 233.285 369.483 232.989 369.819C232.693 370.142 232.343 370.39 231.94 370.565C231.55 370.74 231.133 370.827 230.689 370.827C230.246 370.827 229.822 370.74 229.419 370.565C229.029 370.39 228.686 370.142 228.39 369.819C228.094 369.483 227.859 369.072 227.684 368.588C227.523 368.091 227.442 367.526 227.442 366.894ZM225.627 366.894C225.627 367.661 225.734 368.373 225.949 369.032C226.164 369.691 226.487 370.269 226.917 370.767C227.348 371.251 227.879 371.634 228.511 371.917C229.143 372.186 229.869 372.32 230.689 372.32C231.523 372.32 232.249 372.186 232.868 371.917C233.5 371.634 234.031 371.251 234.461 370.767C234.892 370.269 235.214 369.691 235.43 369.032C235.645 368.373 235.752 367.661 235.752 366.894C235.752 366.128 235.645 365.415 235.43 364.756C235.214 364.084 234.892 363.505 234.461 363.021C234.031 362.524 233.5 362.134 232.868 361.851C232.249 361.569 231.523 361.428 230.689 361.428C229.869 361.428 229.143 361.569 228.511 361.851C227.879 362.134 227.348 362.524 226.917 363.021C226.487 363.505 226.164 364.084 225.949 364.756C225.734 365.415 225.627 366.128 225.627 366.894ZM237.834 361.67V376.072H239.549V370.706H239.589C239.778 371.016 240.006 371.278 240.275 371.493C240.557 371.695 240.853 371.856 241.163 371.977C241.472 372.098 241.781 372.186 242.09 372.239C242.413 372.293 242.702 372.32 242.958 372.32C243.751 372.32 244.444 372.179 245.035 371.896C245.641 371.614 246.138 371.231 246.528 370.747C246.931 370.249 247.227 369.671 247.416 369.012C247.617 368.353 247.718 367.654 247.718 366.914C247.718 366.175 247.617 365.475 247.416 364.816C247.214 364.158 246.911 363.579 246.508 363.082C246.118 362.571 245.62 362.167 245.015 361.871C244.424 361.576 243.724 361.428 242.917 361.428C242.191 361.428 241.526 361.562 240.921 361.831C240.315 362.087 239.872 362.503 239.589 363.082H239.549V361.67H237.834ZM245.903 366.793C245.903 367.304 245.849 367.802 245.741 368.286C245.634 368.77 245.459 369.2 245.217 369.577C244.975 369.953 244.652 370.256 244.249 370.484C243.859 370.713 243.368 370.827 242.776 370.827C242.185 370.827 241.68 370.72 241.263 370.505C240.847 370.276 240.504 369.98 240.235 369.617C239.979 369.254 239.791 368.837 239.67 368.367C239.549 367.882 239.488 367.385 239.488 366.874C239.488 366.39 239.542 365.912 239.65 365.442C239.771 364.971 239.959 364.554 240.215 364.191C240.47 363.815 240.8 363.512 241.203 363.283C241.606 363.055 242.097 362.941 242.675 362.941C243.227 362.941 243.704 363.048 244.108 363.263C244.524 363.478 244.861 363.768 245.116 364.131C245.385 364.494 245.58 364.911 245.701 365.381C245.836 365.838 245.903 366.309 245.903 366.793ZM255.607 357.696V372.098H257.422V360.54H257.463L264.986 372.098H267.084V357.696H265.269V369.375H265.228L257.644 357.696H255.607ZM271.152 366.894C271.152 366.262 271.233 365.704 271.394 365.22C271.569 364.722 271.804 364.305 272.1 363.969C272.396 363.633 272.739 363.378 273.129 363.203C273.532 363.028 273.956 362.941 274.4 362.941C274.844 362.941 275.26 363.028 275.65 363.203C276.054 363.378 276.403 363.633 276.699 363.969C276.995 364.305 277.224 364.722 277.385 365.22C277.56 365.704 277.647 366.262 277.647 366.894C277.647 367.526 277.56 368.091 277.385 368.588C277.224 369.072 276.995 369.483 276.699 369.819C276.403 370.142 276.054 370.39 275.65 370.565C275.26 370.74 274.844 370.827 274.4 370.827C273.956 370.827 273.532 370.74 273.129 370.565C272.739 370.39 272.396 370.142 272.1 369.819C271.804 369.483 271.569 369.072 271.394 368.588C271.233 368.091 271.152 367.526 271.152 366.894ZM269.337 366.894C269.337 367.661 269.444 368.373 269.66 369.032C269.875 369.691 270.198 370.269 270.628 370.767C271.058 371.251 271.589 371.634 272.221 371.917C272.853 372.186 273.58 372.32 274.4 372.32C275.234 372.32 275.96 372.186 276.578 371.917C277.21 371.634 277.741 371.251 278.172 370.767C278.602 370.269 278.925 369.691 279.14 369.032C279.355 368.373 279.463 367.661 279.463 366.894C279.463 366.128 279.355 365.415 279.14 364.756C278.925 364.084 278.602 363.505 278.172 363.021C277.741 362.524 277.21 362.134 276.578 361.851C275.96 361.569 275.234 361.428 274.4 361.428C273.58 361.428 272.853 361.569 272.221 361.851C271.589 362.134 271.058 362.524 270.628 363.021C270.198 363.505 269.875 364.084 269.66 364.756C269.444 365.415 269.337 366.128 269.337 366.894ZM291.812 372.098L295.14 361.67H293.365L291.025 370.202H290.985L288.806 361.67H286.93L284.833 370.202H284.792L282.432 361.67H280.536L283.885 372.098H285.74L287.838 363.808H287.878L289.996 372.098H291.812Z" fill="white"/>
</g>
<defs>
<clipPath id="clip0_229_12787">
<rect width="1400" height="550" fill="white"/>
</clipPath>
</defs>
</svg>
