<svg width="55" height="65" viewBox="0 0 55 65" fill="none" xmlns="http://www.w3.org/2000/svg">
<rect x="2.05005" y="25.7988" width="50.8998" height="35.2805" rx="1.84295" fill="white" stroke="#2F3337" stroke-width="1.5"/>
<path d="M24.4864 40.8471C25.4244 41.5509 25.4752 42.9403 24.591 43.7107L5.10379 60.6909C3.91137 61.7299 2.05013 60.883 2.05012 59.3014L2.05012 27.6994C2.05012 26.1806 3.78427 25.3137 4.99916 26.2253L24.4864 40.8471Z" fill="white" stroke="#2F3337" stroke-width="1.5"/>
<path d="M31.6362 40.8712C30.7443 41.5748 30.695 42.9098 31.5327 43.6772L49.8619 60.4673C51.0441 61.5502 52.9497 60.7116 52.9497 59.1083L52.9497 27.86C52.9497 26.3206 51.174 25.4596 49.9653 26.4131L31.6362 40.8712Z" fill="white" stroke="#2F3337" stroke-width="1.5"/>
<path d="M26.34 7.21049C27.0173 6.66955 27.9827 6.66955 28.66 7.21049L51.9895 25.8446C52.9139 26.583 52.9087 27.982 51.9787 28.7135L28.6492 47.0653C27.976 47.5949 27.024 47.5949 26.3508 47.0653L3.02134 28.7135C2.09138 27.9819 2.08614 26.583 3.01057 25.8446L26.34 7.21049Z" fill="white" stroke="#2F3337" stroke-width="1.5"/>
<path d="M8.00537 16.2595C8.00537 15.2417 8.83049 14.4166 9.84832 14.4166H45.1518C46.1697 14.4166 46.9948 15.2417 46.9948 16.2595V32.0144C46.9948 32.5768 46.738 33.1084 46.2975 33.458L28.7983 47.3456C28.1316 47.8747 27.1894 47.8784 26.5185 47.3547L8.71419 33.4543C8.26685 33.1051 8.00537 32.5692 8.00537 32.0017V16.2595Z" fill="white" stroke="#2F3337" stroke-width="1.5"/>
<path fill-rule="evenodd" clip-rule="evenodd" d="M38.1922 39.2829L29.2613 46.3686C28.3342 47.1042 27.0189 47.1096 26.0857 46.3818L16.2876 38.7401L21.7818 21.5249C21.9767 20.9143 22.6342 20.5756 23.2496 20.769L28.8232 22.5208C29.4386 22.7142 29.7798 23.3668 29.5849 23.9774C29.1824 25.2385 29.8375 26.4912 31.1083 26.8906C32.3791 27.29 33.6414 26.64 34.0438 25.3789C34.2387 24.7682 34.8963 24.4296 35.5116 24.623L41.0853 26.3748C41.7006 26.5682 42.0418 27.2207 41.847 27.8314L38.1922 39.2829ZM23.3231 37.8328C22.4001 37.5427 21.4138 38.0507 21.1215 38.9666C20.8291 39.8826 21.341 40.8614 22.264 41.1515C23.187 41.4416 24.1733 40.9337 24.4657 40.0177C24.758 39.1018 24.2461 38.1229 23.3231 37.8328ZM32.5385 35.8604C33.4615 36.1505 34.4478 35.6426 34.7401 34.7266C35.0325 33.8107 34.5206 32.8319 33.5976 32.5418C32.6746 32.2517 31.6883 32.7596 31.3959 33.6756C31.1036 34.5915 31.6155 35.5703 32.5385 35.8604ZM30.4783 44.2372L32.5537 43.1684L25.3833 29.4561L23.3079 30.5249L30.4783 44.2372Z" fill="#FF1F2C"/>
</svg>
